<svg xmlns="http://www.w3.org/2000/svg" viewBox="0 0 16 16" fill="#000000" id="Trash-Light--Streamline-Phosphor" height="16" width="16">
  <desc>
    Trash Light Streamline Icon: https://streamlinehq.com
  </desc>
  <path d="M14.76391875 2.61960625H11.5356875v-0.768625c0 -0.93390625 -0.75708125 -1.69098125 -1.69098125 -1.69098125H6.15529375c-0.9339 0 -1.69098125 0.757075 -1.69098125 1.69098125v0.768625H1.23608125c-0.35501875 0.00001875 -0.57690625 0.38434375 -0.39938125 0.6917875 0.08238125 0.142675 0.234625 0.23056875 0.39938125 0.23056875h0.768625v11.22195625c0 0.59430625 0.481775 1.07608125 1.076075 1.07608125h9.83843125c0.59430625 0 1.07608125 -0.481775 1.07608125 -1.07608125V3.5419625h0.768625c0.35501875 0 0.5769 -0.38431875 0.39939375 -0.69176875 -0.08238125 -0.14268125 -0.2346375 -0.23058125 -0.39939375 -0.2305875Zm-9.37725 -0.768625c0 -0.4245 0.344125 -0.76863125 0.768625 -0.76863125h3.6894125c0.4245 0 0.768625 0.34413125 0.768625 0.76863125v0.768625H5.38666875Zm7.686275 12.9129375c0 0.0849 -0.06883125 0.153725 -0.15373125 0.15373125H3.08078125c-0.0849 0 -0.153725 -0.068825 -0.153725 -0.15373125V3.5419625h10.1458875ZM6.61646875 6.77019375v4.91921875c0 0.3550125 -0.3843125 0.5769 -0.6917625 0.3993875 -0.1426875 -0.08238125 -0.2305875 -0.234625 -0.2305875 -0.3993875v-4.91921875c0 -0.3550125 0.3843125 -0.57689375 0.6917625 -0.3993875 0.1426875 0.08238125 0.2305875 0.234625 0.2305875 0.3993875Zm3.6894125 0v4.91921875c0 0.3550125 -0.3843125 0.5769 -0.6917625 0.3993875 -0.1426875 -0.08238125 -0.2305875 -0.234625 -0.2305875 -0.3993875v-4.91921875c0 -0.3550125 0.3843125 -0.57689375 0.6917625 -0.3993875 0.1426875 0.08238125 0.2305875 0.234625 0.2305875 0.3993875Z" stroke-width="0.0625"></path>
</svg>