<?xml version="1.0" encoding="UTF-8"?>
<svg version="1.1" xmlns="http://www.w3.org/2000/svg" width="512" height="512">
<path d="M0 0 C7.31999014 6.09600714 10.91669926 15.65254546 14.56640625 24.22265625 C15.0119133 25.25259705 15.45742035 26.28253784 15.91642761 27.34368896 C17.36827159 30.70519368 18.80969866 34.07103512 20.25 37.4375 C21.26099374 39.79078039 22.27239287 42.14388665 23.28417969 44.49682617 C24.84710753 48.13245685 26.4091374 51.76845664 27.96798706 55.40583801 C31.03516122 62.56026432 34.13640416 69.69871628 37.27378845 76.82264709 C39.21152491 81.22505444 41.13643335 85.63300947 43.05978394 90.04171753 C43.96718953 92.1136253 44.88008263 94.18313977 45.79885864 96.25003052 C50.9795983 107.91711018 55.07537071 118.6632571 56.6875 131.375 C56.93005699 132.93113523 57.17334761 134.48715666 57.41796875 136.04296875 C57.56878906 137.20441406 57.71960938 138.36585938 57.875 139.5625 C58.11283203 141.34720703 58.11283203 141.34720703 58.35546875 143.16796875 C58.46503906 144.22628906 58.57460938 145.28460938 58.6875 146.375 C58.92726563 147.62990234 58.92726563 147.62990234 59.171875 148.91015625 C58.34978377 153.09353987 54.97604647 155.06673574 51.75 157.625 C51.09064453 158.16640625 50.43128906 158.7078125 49.75195312 159.265625 C48.53559717 160.26366065 47.3141385 161.25553076 46.08618164 162.23925781 C44.7168598 163.31124241 44.7168598 163.31124241 43.6875 164.375 C33.12035092 163.80208228 22.74788071 161.33340859 12.39892578 159.23535156 C9.93955939 158.7388083 7.47790316 158.25530235 5.015625 157.7734375 C4.26863342 157.61829681 3.52164185 157.46315613 2.75201416 157.30331421 C-1.55160845 156.47063736 -5.06271823 156.21256438 -9.3125 157.375 C-11.65086138 159.2883837 -11.65086138 159.2883837 -11.61791992 162.60791016 C-11.28630378 166.69810766 -10.35065621 169.04918692 -8.42578125 172.6484375 C-7.81669922 173.8034375 -7.20761719 174.9584375 -6.58007812 176.1484375 C-5.92865563 177.34910498 -5.27696136 178.54962504 -4.625 179.75 C-3.99153777 180.94201799 -3.35936549 182.13472241 -2.72851562 183.328125 C0.66240136 189.74254794 0.66240136 189.74254794 4.29541016 196.02050781 C4.76124512 196.78975586 5.22708008 197.55900391 5.70703125 198.3515625 C6.11671143 198.99432129 6.5263916 199.63708008 6.94848633 200.29931641 C8.02529908 203.32378355 7.50874103 205.29937182 6.6875 208.375 C5.29223633 211.00878906 5.29223633 211.00878906 3.51953125 213.640625 C2.87306641 214.61386719 2.22660156 215.58710938 1.56054688 216.58984375 C0.88056641 217.59144531 0.20058594 218.59304688 -0.5 219.625 C-6.21975038 228.14558842 -6.21975038 228.14558842 -11.73828125 236.796875 C-12.21305908 237.5609668 -12.68783691 238.32505859 -13.17700195 239.11230469 C-14.40932247 241.56793714 -14.97909454 243.65242398 -15.3125 246.375 C-14.33519781 249.08137529 -13.90737555 250.07756222 -11.3125 251.375 C-2.02715352 251.85892685 7.1453285 250.296858 16.32836914 249.08398438 C18.487805 248.80077967 20.64812677 248.52521117 22.80859375 248.25 C24.0814624 248.08242188 25.35433105 247.91484375 26.66577148 247.7421875 C28.0058489 247.61444659 29.34647829 247.4924137 30.6875 247.375 C31.49322952 247.27688019 32.29895905 247.17876038 33.12910461 247.07766724 C36.78784542 246.80581047 39.54500971 246.69540343 42.75843811 248.60687256 C44.81725883 250.39948182 46.64880682 252.28778503 48.48828125 254.3046875 C49.17254684 255.01021759 49.85681244 255.71574768 50.56181335 256.44265747 C52.73293183 258.68924981 54.86718729 260.96706388 57 263.25 C59.15644273 265.51930643 61.31997003 267.78128269 63.491745 270.03591919 C64.83769965 271.43726165 66.17381653 272.84813764 67.49861145 274.26950073 C70.75045902 277.69518844 73.13161829 279.84046284 77.6875 281.375 C80.01812044 285.07184621 80.6875 286.95710361 80.6875 291.375 C81.57566406 291.5709375 82.46382813 291.766875 83.37890625 291.96875 C107.86941921 297.7021496 135.42178261 306.2418831 153.6875 324.375 C154.42871094 325.09042969 155.16992188 325.80585938 155.93359375 326.54296875 C163.78395577 334.68141745 167.47954971 343.03305257 167.27514648 354.38745117 C166.60611293 366.33772576 161.03756682 374.25253296 152.6875 382.375 C151.81544922 383.27798828 151.81544922 383.27798828 150.92578125 384.19921875 C100.80684509 432.51612574 -2.89714339 430.33596766 -67.77636719 429.32080078 C-114.81795537 428.39616698 -162.4313168 422.89487801 -207.3125 408.375 C-208.05209961 408.13845703 -208.79169922 407.90191406 -209.55371094 407.65820312 C-225.40606064 402.48161946 -242.09564208 394.89940444 -254.3125 383.375 C-255.26769531 382.53582031 -255.26769531 382.53582031 -256.2421875 381.6796875 C-263.6140905 374.87728774 -268.78156418 366.22739037 -269.5625 356.1484375 C-270.00630862 343.19477337 -265.51553117 335.17680045 -257.3125 325.375 C-238.60932432 307.8474525 -210.38357601 296.41872194 -185.3125 292.375 C-185.21453125 291.78332031 -185.1165625 291.19164062 -185.015625 290.58203125 C-184.03658433 285.40830769 -182.87441259 282.38215167 -179.3125 278.375 C-178.07233331 275.6955355 -178.07233331 275.6955355 -177.3125 273.375 C-172.1847874 276.62632565 -167.58724308 280.35315127 -162.9375 284.25 C-158.66955105 287.81941774 -154.3896151 291.37434469 -150.01171875 294.80859375 C-149.08105591 295.54420532 -149.08105591 295.54420532 -148.1315918 296.29467773 C-146.11769602 297.68252862 -146.11769602 297.68252862 -142.5 297.5625 C-138.53633477 296.08584041 -138.13056292 295.12960078 -136.3125 291.375 C-135.45467093 288.58244576 -134.83773781 285.75379594 -134.2265625 282.8984375 C-133.84962018 281.24203675 -133.47199552 279.58579115 -133.09375 277.9296875 C-132.510822 275.33309772 -131.93435094 272.73548505 -131.37011719 270.13476562 C-130.81936939 267.61407189 -130.24355067 265.10015575 -129.6640625 262.5859375 C-129.42159286 261.41869644 -129.42159286 261.41869644 -129.17422485 260.22787476 C-128.42501068 257.03769392 -127.81184013 254.8275522 -125.34790039 252.59448242 C-120.75589655 250.74962928 -116.10362374 249.170852 -111.39453125 247.65234375 C-110.34093918 247.30619522 -109.28734711 246.96004669 -108.201828 246.60340881 C-104.84475082 245.5006409 -101.48522115 244.40564771 -98.125 243.3125 C-93.69174001 241.87010415 -89.26113962 240.41993088 -84.83203125 238.96484375 C-83.80809769 238.63459702 -82.78416412 238.30435028 -81.72920227 237.96409607 C-80.7844957 237.65359818 -79.83978912 237.34310028 -78.86645508 237.02319336 C-77.61666618 236.61707069 -77.61666618 236.61707069 -76.34162903 236.20274353 C-74.13428246 235.45521152 -74.13428246 235.45521152 -72.3125 233.375 C-71.74949413 228.84203507 -71.74949413 228.84203507 -73.46118164 224.81713867 C-75.90098813 222.91657993 -78.380456 221.90413598 -81.24609375 220.73828125 C-82.44355225 220.24996826 -83.64101074 219.76165527 -84.87475586 219.25854492 C-85.50767548 219.00366302 -86.14059509 218.74878113 -86.79269409 218.48617554 C-88.77007793 217.67930723 -90.73219362 216.84220014 -92.69360352 215.99731445 C-98.5458161 213.50602468 -104.1481544 211.22258577 -110.46875 210.1796875 C-120.77481497 208.20310611 -120.77481497 208.20310611 -124.3125 203.375 C-128.25987273 193.20669459 -128.91121193 181.46967676 -129.68132019 170.68301392 C-129.98745343 166.58177521 -130.33993362 163.07591452 -132.3125 159.375 C-135.18350996 157.93949502 -137.11707651 158.06994764 -140.3125 158.375 C-143.59491829 160.08145719 -143.59491829 160.08145719 -146.6875 162.375 C-148.27691406 163.48875 -148.27691406 163.48875 -149.8984375 164.625 C-150.69507813 165.2025 -151.49171875 165.78 -152.3125 166.375 C-153.48676971 162.9144206 -153.11793944 160.60954571 -152.24609375 157.09375 C-152.00826172 156.08699219 -151.77042969 155.08023438 -151.52539062 154.04296875 C-151.00824197 151.93008432 -150.48740389 149.81809951 -149.96289062 147.70703125 C-149.72634766 146.70027344 -149.48980469 145.69351563 -149.24609375 144.65625 C-149.01978271 143.73908203 -148.79347168 142.82191406 -148.56030273 141.87695312 C-148.26607531 138.90627067 -148.68326536 137.84242804 -150.3125 135.375 C-155.89948124 132.81612526 -162.06376263 133.24585114 -167.99609375 134.03515625 C-168.82527313 134.13588943 -169.65445251 134.23662262 -170.50875854 134.34040833 C-173.25898221 134.68533636 -176.00420992 135.05897616 -178.75 135.4375 C-180.178246 135.62665985 -180.178246 135.62665985 -181.63534546 135.81964111 C-202.45290888 138.61522647 -222.84645957 143.21685372 -243.26538086 148.05493164 C-245.07693161 148.48088875 -245.07693161 148.48088875 -246.92507935 148.91545105 C-249.18969084 149.45026861 -251.45237293 149.99335231 -253.71261597 150.54634094 C-268.60076529 154.07570975 -268.60076529 154.07570975 -274.0625 150.75 C-278.17620424 148.03890888 -280.5579184 145.08349821 -281.90234375 140.2578125 C-282.80096451 132.74878969 -278.76360027 127.92336103 -274.40625 122.3203125 C-273.90480469 121.68512695 -273.40335937 121.04994141 -272.88671875 120.39550781 C-270.6618913 117.53994454 -268.54356428 114.61066578 -266.41455078 111.68334961 C-260.16291941 103.10127551 -253.73566205 94.65545005 -247.28369141 86.22363281 C-242.81827878 80.37851249 -238.41597326 74.49140645 -234.0625 68.5625 C-233.49265381 67.78745117 -232.92280762 67.01240234 -232.33569336 66.21386719 C-230.10643454 63.18087071 -227.87780114 60.14743946 -225.65478516 57.10986328 C-224.06722527 54.94397462 -222.47197205 52.78395411 -220.875 50.625 C-220.41512695 49.99360107 -219.95525391 49.36220215 -219.48144531 48.71166992 C-207.01709074 31.92978891 -191.54518344 28.85472007 -171.91796875 24.7421875 C-169.48823964 24.22045137 -167.05882785 23.69723558 -164.62971497 23.17263794 C-158.21773294 21.79188957 -151.80179628 20.43048886 -145.38476562 19.07342529 C-139.06731745 17.73436211 -132.7534615 16.37861109 -126.43945312 15.0234375 C-118.93125417 13.41252258 -111.42254265 11.8042492 -103.91085815 10.20965576 C-91.15015662 7.49864525 -78.40164537 4.7414132 -65.67041016 1.89550781 C-63.13579977 1.33165273 -60.60115774 0.76793987 -58.06648254 0.20437622 C-53.29934225 -0.85580218 -48.53578352 -1.93045987 -43.77372742 -3.01321411 C-41.61661801 -3.49361661 -39.45938295 -3.97345533 -37.30200195 -4.45263672 C-36.3469533 -4.67421322 -35.39190464 -4.89578972 -34.40791512 -5.12408066 C-21.86788547 -7.87390021 -10.89672906 -7.29210766 0 0 Z M-86.3125 46.375 C-87.25253527 48.85374617 -87.25253527 48.85374617 -87.69140625 51.59375 C-87.89056641 52.60953125 -88.08972656 53.6253125 -88.29492188 54.671875 C-88.48634766 55.72890625 -88.67777344 56.7859375 -88.875 57.875 C-89.46924302 60.99722734 -90.07082782 64.11498412 -90.71875 67.2265625 C-91.36293603 70.37140817 -91.36293603 70.37140817 -91.609375 73.5859375 C-92.07351931 77.00101765 -92.61218875 79.36614416 -94.3125 82.375 C-98.93092561 85.63390386 -103.89932898 87.46596168 -109.1875 89.375 C-111.26023637 90.1696053 -113.32730363 90.97717471 -115.3923645 91.79150391 C-117.26577441 92.52290703 -119.15192687 93.22142226 -121.03857422 93.91796875 C-124.33731445 95.38604345 -126.704343 96.88723809 -129.3125 99.375 C-130.14599951 102.33159873 -130.14599951 102.33159873 -129.3125 105.375 C-125.94816505 109.22898534 -122.44829413 111.68538865 -117.98828125 114.14453125 C-117.10706856 114.63333015 -117.10706856 114.63333015 -116.20805359 115.13200378 C-114.97743902 115.81234713 -113.74455566 116.48860163 -112.50952148 117.16088867 C-110.61468396 118.19311976 -108.72789313 119.23900634 -106.84179688 120.28710938 C-101.35859314 123.81824097 -101.35859314 123.81824097 -95.3125 125.375 C-95.26351562 126.46554688 -95.21453125 127.55609375 -95.1640625 128.6796875 C-94.76828231 136.8909785 -94.23703078 145.07335974 -93.375 153.25 C-93.30039551 154.00394043 -93.22579102 154.75788086 -93.14892578 155.53466797 C-92.74449191 159.16795629 -92.35657909 162.28974204 -90.3125 165.375 C-87.96918642 167.13248519 -86.49351215 167.36677217 -83.5625 167.5 C-79.3807716 166.05247863 -77.36841919 163.74274494 -74.37890625 160.5546875 C-71.86019672 157.89790126 -69.16747537 155.54104934 -66.3671875 153.1875 C-64.23928624 151.36693203 -64.23928624 151.36693203 -62.1953125 149.125 C-61.47085938 148.3825 -60.74640625 147.64 -60 146.875 C-59.36449219 146.1840625 -58.72898437 145.493125 -58.07421875 144.78125 C-50.83406158 141.09460703 -40.49097472 145.08422351 -33 146.9375 C-24.76054486 149.15598515 -24.76054486 149.15598515 -16.3125 149.375 C-13.22916667 147.45833333 -13.22916667 147.45833333 -11.3125 144.375 C-11.60360722 139.23261788 -13.02298855 135.32852849 -15.2890625 130.7421875 C-15.88300152 129.51180998 -16.47674584 128.28133845 -17.0703125 127.05078125 C-18.00533702 125.14181391 -18.94483738 123.2351934 -19.88867188 121.33056641 C-20.80471783 119.47324037 -21.7037802 117.60839385 -22.6015625 115.7421875 C-23.41681396 114.08872314 -23.41681396 114.08872314 -24.24853516 112.40185547 C-25.44047489 109.01092641 -25.50209361 107.72358369 -24.3125 104.375 C-23.26778412 102.36063557 -22.14420707 100.3862906 -20.96875 98.4453125 C-19.96521484 96.75728516 -19.96521484 96.75728516 -18.94140625 95.03515625 C-17.87887234 93.26655459 -16.81268885 91.50031097 -15.74169922 89.73681641 C-14.70319508 88.02067274 -13.67956579 86.29555588 -12.65625 84.5703125 C-12.03943359 83.54953613 -11.42261719 82.52875977 -10.78710938 81.47705078 C-9.13667983 78.00513724 -8.50471944 75.2088834 -8.3125 71.375 C-10.17653565 68.27133012 -10.17653565 68.27133012 -13.3125 66.375 C-16.58662405 65.91182936 -16.58662405 65.91182936 -20.125 66.4375 C-21.09373047 66.53405884 -21.09373047 66.53405884 -22.08203125 66.63256836 C-24.16373849 66.84899586 -26.23682501 67.10710924 -28.3125 67.375 C-29.74348467 67.55212302 -31.17447426 67.72920633 -32.60546875 67.90625 C-35.29298197 68.24084247 -37.97349582 68.59914271 -40.65625 68.97265625 C-41.8628125 69.10542969 -43.069375 69.23820312 -44.3125 69.375 C-45.488125 69.52839844 -46.66375 69.68179688 -47.875 69.83984375 C-52.85124099 69.16692025 -54.68425155 66.60349056 -57.8125 62.875 C-58.37710938 62.2344165 -58.94171875 61.59383301 -59.5234375 60.93383789 C-61.13804999 59.09577457 -62.72720962 57.23834695 -64.3125 55.375 C-65.64452505 53.85302067 -66.97753484 52.33190114 -68.3125 50.8125 C-70.18091816 48.67782077 -72.03233585 46.53226535 -73.875 44.375 C-76.19683628 42.14075062 -76.19683628 42.14075062 -79.375 41.8125 C-83.00860911 42.50829749 -83.97383229 43.55887556 -86.3125 46.375 Z " fill="#288EFF" transform="translate(313.3125,44.625)"/>
<path d="M0 0 C0.66 0.33 1.32 0.66 2 1 C2.52701719 3.56644346 2.92280486 6.05921891 3.25268555 8.65332031 C3.36187317 9.45498123 3.47106079 10.25664215 3.58355713 11.08259583 C3.94382606 13.74662744 4.29061229 16.41221915 4.63671875 19.078125 C4.882312 20.92567355 5.12847927 22.77314589 5.37519836 24.62054443 C5.89122137 28.50034462 6.4006743 32.38093674 6.90551758 36.26220703 C7.5528012 41.23496498 8.21550362 46.20551859 8.88309002 51.1755867 C9.39437281 54.99408263 9.89776349 58.81358683 10.39875221 62.63344574 C10.64001883 64.46616376 10.88365623 66.29857131 11.12970543 68.13065338 C11.47293247 70.69583603 11.80559558 73.26217589 12.13549805 75.82910156 C12.23880936 76.58566544 12.34212067 77.34222931 12.44856262 78.12171936 C12.93355909 81.98783331 13.05017152 85.22922797 12 89 C8.93353041 87.63212231 6.82973187 86.07686868 4.46875 83.69921875 C3.50001953 82.72758789 3.50001953 82.72758789 2.51171875 81.73632812 C1.84785156 81.06021484 1.18398438 80.38410156 0.5 79.6875 C-0.16386719 79.02298828 -0.82773437 78.35847656 -1.51171875 77.67382812 C-4.22487451 74.9363027 -6.79819005 72.26140238 -9.15625 69.20703125 C-11.2679437 66.67926231 -12.99669647 65.35328497 -16 64 C-18.78568757 63.77883359 -18.78568757 63.77883359 -21.75 64.1875 C-22.88179688 64.30351562 -24.01359375 64.41953125 -25.1796875 64.5390625 C-26.44039063 64.69117188 -27.70109375 64.84328125 -29 65 C-31.21381375 65.26453113 -33.42766029 65.52877444 -35.64160156 65.79223633 C-37.09484817 65.96809378 -38.54739015 66.14991072 -39.99902344 66.33862305 C-44.38408431 66.89118238 -48.5931073 67.08629685 -53 67 C-49.59766131 59.84932207 -45.48058154 53.33874833 -41.15820312 46.71484375 C-40.63806641 45.90660156 -40.11792969 45.09835937 -39.58203125 44.265625 C-39.10999268 43.54149414 -38.6379541 42.81736328 -38.15161133 42.07128906 C-36.98686902 39.9763826 -36.30642073 38.37528282 -36 36 C-37.06893197 33.44347103 -38.18866623 31.11416748 -39.5 28.6875 C-40.24144736 27.26529315 -40.98098388 25.84208871 -41.71875 24.41796875 C-42.09773438 23.6914209 -42.47671875 22.96487305 -42.8671875 22.21630859 C-44.67097741 18.68725583 -46.33950293 15.0981788 -48 11.5 C-48.30228516 10.84733154 -48.60457031 10.19466309 -48.91601562 9.5222168 C-49.61266654 8.0157296 -50.30666024 6.50801398 -51 5 C-49.33295316 5.24745226 -47.66641115 5.49830248 -46 5.75 C-44.24429687 6.00523437 -44.24429687 6.00523437 -42.453125 6.265625 C-38.97671342 6.80422398 -35.55037849 7.50406642 -32.109375 8.234375 C-31.06394531 8.44223633 -30.01851563 8.65009766 -28.94140625 8.86425781 C-26.84417034 9.28203645 -24.75241396 9.72853444 -22.66796875 10.20605469 C-17.08908353 11.27709882 -13.81292393 11.45439339 -8.95703125 8.2734375 C-5.70975842 5.75963879 -2.76534868 3.03296306 0 0 Z " fill="#3D73FF" transform="translate(373,213)"/>
<path d="M0 0 C0.12528076 0.94319092 0.25056152 1.88638184 0.37963867 2.8581543 C0.85237551 6.37432412 1.35285011 9.88608834 1.86157227 13.3972168 C2.07743375 14.91406817 2.28587208 16.43199597 2.48657227 17.95092773 C2.7773098 20.14115047 3.09501074 22.32604346 3.41796875 24.51171875 C3.50153122 25.18587326 3.58509369 25.86002777 3.67118835 26.55461121 C4.44719633 31.53693112 6.0584017 33.9154477 10 37 C13.32321533 38.71312582 13.32321533 38.71312582 17.015625 40.04296875 C17.67205994 40.2975032 18.32849487 40.55203766 19.00482178 40.81428528 C21.08196469 41.617976 23.16520627 42.40389347 25.25 43.1875 C27.34809691 43.98401755 29.44452411 44.78432647 31.5380249 45.59284973 C33.42596983 46.32089516 35.31883641 47.03613937 37.21191406 47.75073242 C40 49 40 49 41 51 C40.19369141 51.28721924 39.38738281 51.57443848 38.55664062 51.87036133 C35.52976028 52.94893737 32.50309278 54.02810809 29.4765625 55.10766602 C28.17326046 55.57241812 26.86987686 56.03694159 25.56640625 56.5012207 C22.46531589 57.60586524 19.36674431 58.71597223 16.2734375 59.84228516 C14.33717987 60.52708033 12.38706031 61.17719235 10.4140625 61.74755859 C6.8549564 62.81414969 5.24873769 63.60849896 3.23046875 66.78515625 C2.77225009 68.17517152 2.37129186 69.58428493 2 71 C1.71205566 72.05300293 1.42411133 73.10600586 1.12744141 74.19091797 C0.1438743 77.92988601 -0.77886386 81.67965407 -1.6875 85.4375 C-2.01051763 86.75469231 -2.33408073 88.07175098 -2.65820312 89.38867188 C-3.44416598 92.59117723 -4.22458439 95.79492758 -5 99 C-11.08331629 96.12072848 -16.09902528 91.54638468 -21.30712891 87.33935547 C-22.75043331 86.19745066 -24.2366368 85.11011686 -25.73046875 84.03515625 C-26.45878906 83.48730469 -27.18710938 82.93945312 -27.9375 82.375 C-28.87916016 81.70597656 -28.87916016 81.70597656 -29.83984375 81.0234375 C-34.31156413 73.22427536 -27.13805682 55.06604274 -25.35102177 46.59738064 C-24.62886051 43.17461852 -23.92262327 39.75024371 -23.25366211 36.31665039 C-22.47554872 32.32469408 -21.63258083 28.34892101 -20.78515625 24.37109375 C-20.44074242 22.53954994 -20.44074242 22.53954994 -20.08937073 20.67100525 C-18.10084269 11.73597135 -14.608716 7.89465145 -7 3 C-6.29847305 2.43586899 -5.59694611 1.87173798 -4.87416077 1.29051208 C-3 0 -3 0 0 0 Z " fill="#19A1FF" transform="translate(171,223)"/>
<path d="M0 0 C3.51560193 2.81248154 6.75262941 5.66425901 9.73828125 9.03515625 C10.21483154 9.57301758 10.69138184 10.11087891 11.18237305 10.66503906 C12.1329062 11.75053538 13.0735038 12.84482515 14.00317383 13.94824219 C15.94632689 16.16758123 17.53811878 17.81681321 20.3046875 18.9140625 C24.10337634 19.03518012 27.74162781 18.58503707 31.5 18.0625 C40.55741979 16.85015106 40.55741979 16.85015106 45 17 C43.89176109 20.12377231 42.51254025 22.93080391 40.8359375 25.77734375 C40.43632812 26.45603516 40.03671875 27.13472656 39.625 27.83398438 C38.79133144 29.23689224 37.95015544 30.63536583 37.1015625 32.02929688 C34.68237746 36.17254399 33.12369972 39.09395267 34 44 C35.30458136 47.35321067 36.87421867 50.54237738 38.5 53.75 C39.34695229 55.45153479 40.19086225 57.15458843 41.03125 58.859375 C41.40830078 59.60670898 41.78535156 60.35404297 42.17382812 61.12402344 C43 63 43 63 43 65 C42.14619751 64.81824219 42.14619751 64.81824219 41.27514648 64.6328125 C38.66407345 64.08127072 36.05086554 63.54057037 33.4375 63 C32.54224609 62.80921875 31.64699219 62.6184375 30.72460938 62.421875 C22.1347384 60.28894671 22.1347384 60.28894671 13.91796875 62.21484375 C13.34691406 62.78332031 12.77585938 63.35179687 12.1875 63.9375 C11.53136719 64.5665625 10.87523437 65.195625 10.19921875 65.84375 C9.47347656 66.5553125 8.74773437 67.266875 8 68 C6.17251182 69.65232122 4.33910993 71.29812416 2.5 72.9375 C0.99950054 74.29111322 -0.50067938 75.64508116 -2 77 C-2.66 76.67 -3.32 76.34 -4 76 C-4.37890625 74.14575195 -4.37890625 74.14575195 -4.5625 71.73828125 C-4.63726562 70.86623047 -4.71203125 69.99417969 -4.7890625 69.09570312 C-4.85867187 68.17724609 -4.92828125 67.25878906 -5 66.3125 C-5.32581491 57.81392745 -5.32581491 57.81392745 -8 50 C-11.35239818 47.51336902 -14.94242567 45.57715 -18.625 43.625 C-19.61757812 43.07972656 -20.61015625 42.53445312 -21.6328125 41.97265625 C-24.07993597 40.63144435 -26.53515815 39.30827686 -29 38 C-26.70771956 35.37479859 -24.766151 34.37352334 -21.47265625 33.30078125 C-12.05532692 30.30621812 -12.05532692 30.30621812 -4.70556641 24.17773438 C-2.76146509 19.62008468 -2.4011663 14.89716419 -2 10 C-1.60999996 7.99462944 -1.19797835 5.99322014 -0.75 4 C-0.4957668 2.66746735 -0.24379942 1.33448103 0 0 Z " fill="#298DFF" transform="translate(238,111)"/>
</svg>
