<svg xmlns="http://www.w3.org/2000/svg" viewBox="0 0 24 24" fill="none" stroke="#000000" stroke-linecap="round" stroke-linejoin="round" id="File-Json--Streamline-Lucide" height="24" width="24">
  <desc>
    File Json Streamline Icon: https://streamlinehq.com
  </desc>
  <path d="M15 2H6a2 2 0 0 0 -2 2v16a2 2 0 0 0 2 2h12a2 2 0 0 0 2 -2V7Z" stroke-width="2"></path>
  <path d="M14 2v4a2 2 0 0 0 2 2h4" stroke-width="2"></path>
  <path d="M10 12a1 1 0 0 0 -1 1v1a1 1 0 0 1 -1 1 1 1 0 0 1 1 1v1a1 1 0 0 0 1 1" stroke-width="2"></path>
  <path d="M14 18a1 1 0 0 0 1 -1v-1a1 1 0 0 1 1 -1 1 1 0 0 1 -1 -1v-1a1 1 0 0 0 -1 -1" stroke-width="2"></path>
</svg>