<svg xmlns="http://www.w3.org/2000/svg" fill="#000000" class="bi bi-shuffle" viewBox="0 0 16 16" id="Shuffle--Streamline-Bootstrap" height="16" width="16">
  <desc>
    Shuffle Streamline Icon: https://streamlinehq.com
  </desc>
  <path fill-rule="evenodd" d="M0 3.5A0.5 0.5 0 0 1 0.5 3H1c2.202 0 3.827 1.24 4.874 2.418 0.49 0.552 0.865 1.102 1.126 1.532 0.26 -0.43 0.636 -0.98 1.126 -1.532C9.173 4.24 10.798 3 13 3v1c-1.798 0 -3.173 1.01 -4.126 2.082A9.6 9.6 0 0 0 7.556 8a9.6 9.6 0 0 0 1.317 1.918C9.828 10.99 11.204 12 13 12v1c-2.202 0 -3.827 -1.24 -4.874 -2.418A10.6 10.6 0 0 1 7 9.05c-0.26 0.43 -0.636 0.98 -1.126 1.532C4.827 11.76 3.202 13 1 13H0.5a0.5 0.5 0 0 1 0 -1H1c1.798 0 3.173 -1.01 4.126 -2.082A9.6 9.6 0 0 0 6.444 8a9.6 9.6 0 0 0 -1.317 -1.918C4.172 5.01 2.796 4 1 4H0.5a0.5 0.5 0 0 1 -0.5 -0.5" stroke-width="1"></path>
  <path d="M13 5.466V1.534a0.25 0.25 0 0 1 0.41 -0.192l2.36 1.966c0.12 0.1 0.12 0.284 0 0.384l-2.36 1.966a0.25 0.25 0 0 1 -0.41 -0.192m0 9v-3.932a0.25 0.25 0 0 1 0.41 -0.192l2.36 1.966c0.12 0.1 0.12 0.284 0 0.384l-2.36 1.966a0.25 0.25 0 0 1 -0.41 -0.192" stroke-width="1"></path>
</svg>